<svg xmlns="http://www.w3.org/2000/svg" viewBox="0 0 600 100">
  <defs>
    <linearGradient id="waveGradient" x1="0%" y1="0%" x2="100%" y2="0%">
      <stop offset="0%" style="stop-color:#0369a1;stop-opacity:1" />
      <stop offset="50%" style="stop-color:#f87171;stop-opacity:1" />
      <stop offset="100%" style="stop-color:#0369a1;stop-opacity:1" />
    </linearGradient>
    <pattern id="texture" width="4" height="4" patternUnits="userSpaceOnUse">
      <rect width="4" height="4" fill="#f0f0f0"/>
      <path d="M0 0L4 4ZM4 0L0 4Z" stroke="#e8e8e8" stroke-width="0.5"/>
    </pattern>
  </defs>
  
  <!-- Textured Background -->
  <rect width="600" height="100" fill="url(#texture)"/>
  
  <!-- Grid Overlay -->
  <g stroke="#e0e0e0" stroke-width="0.5">
    <line x1="0" y1="25" x2="600" y2="25" />
    <line x1="0" y1="50" x2="600" y2="50" />
    <line x1="0" y1="75" x2="600" y2="75" />
    <line x1="75" y1="0" x2="75" y2="100" />
    <line x1="150" y1="0" x2="150" y2="100" />
    <line x1="225" y1="0" x2="225" y2="100" />
    <line x1="300" y1="0" x2="300" y2="100" />
    <line x1="375" y1="0" x2="375" y2="100" />
    <line x1="450" y1="0" x2="450" y2="100" />
    <line x1="525" y1="0" x2="525" y2="100" />
  </g>
  
  <!-- Synth Elements -->
  <g fill="#e8e8e8" stroke="#d8d8d8">
    <!-- Knobs -->
    <circle cx="30" cy="25" r="10"/>
    <circle cx="60" cy="25" r="10"/>
    <circle cx="90" cy="25" r="10"/>
    <circle cx="510" cy="25" r="10"/>
    <circle cx="540" cy="25" r="10"/>
    <circle cx="570" cy="25" r="10"/>
    <circle cx="270" cy="75" r="10"/>
    <circle cx="330" cy="75" r="10"/>
    
    <!-- Sliders -->
    <rect x="120" y="15" width="5" height="30" rx="2"/>
    <rect x="135" y="15" width="5" height="30" rx="2"/>
    <rect x="150" y="15" width="5" height="30" rx="2"/>
    <rect x="450" y="15" width="5" height="30" rx="2"/>
    <rect x="465" y="15" width="5" height="30" rx="2"/>
    <rect x="480" y="15" width="5" height="30" rx="2"/>
    
    <!-- LCD Screens -->
    <rect x="180" y="15" width="60" height="30" rx="2"/>
    <rect x="360" y="15" width="60" height="30" rx="2"/>
    
    <!-- Buttons -->
    <rect x="20" y="70" width="15" height="15" rx="2"/>
    <rect x="45" y="70" width="15" height="15" rx="2"/>
    <rect x="70" y="70" width="15" height="15" rx="2"/>
    <rect x="515" y="70" width="15" height="15" rx="2"/>
    <rect x="540" y="70" width="15" height="15" rx="2"/>
    <rect x="565" y="70" width="15" height="15" rx="2"/>
    
    <!-- Jack inputs -->
    <circle cx="110" cy="75" r="5"/>
    <circle cx="130" cy="75" r="5"/>
    <circle cx="150" cy="75" r="5"/>
    <circle cx="450" cy="75" r="5"/>
    <circle cx="470" cy="75" r="5"/>
    <circle cx="490" cy="75" r="5"/>
  </g>
  
  <!-- Main Waveform -->
  <path d="M0,50 
           Q10,40 20,50 T40,50 
           Q50,30 60,50 T80,50
           Q90,60 100,40
           C110,20 120,80 130,60
           S140,10 150,30
           Q160,50 170,10
           C180,70 190,20 200,50
           Q210,80 220,30 T240,60
           C250,20 260,70 270,40
           S280,60 290,50 T300,50
           
           T310,50 S320,40 330,80
           C340,30 350,60 360,50
           Q380,20 390,70 T410,40
           C420,80 430,30 440,60
           Q450,10 460,50
           S470,80 480,60
           C490,20 500,40 510,50
           Q520,70 530,50 T550,50
           Q560,30 570,50 T590,50 600,50" 
        stroke="url(#waveGradient)" 
        stroke-width="3" 
        fill="none" />
  
  <!-- Secondary Waveform -->
  <path d="M0,50 
           Q10,60 20,50 T40,50 
           Q50,70 60,50 T80,50
           Q90,40 100,60
           C110,80 120,20 130,40
           S140,90 150,70
           Q160,50 170,90
           C180,30 190,80 200,50
           Q210,20 220,70 T240,40
           C250,80 260,30 270,60
           S280,40 290,50 T300,50
           
           T310,50 S320,60 330,20
           C340,70 350,40 360,50
           Q380,80 390,30 T410,60
           C420,20 430,70 440,40
           Q450,90 460,50
           S470,20 480,40
           C490,80 500,60 510,50
           Q520,30 530,50 T550,50
           Q560,70 570,50 T590,50 600,50" 
        stroke="url(#waveGradient)" 
        stroke-width="2" 
        fill="none" 
        opacity="0.4" />
</svg>
